<svg width="60" height="60" viewBox="0 0 60 60" fill="none" xmlns="http://www.w3.org/2000/svg">
<path d="M8.73589 6.7619C10.8331 5.67422 23.4166 1.32349 23.4166 1.32349C28.5031 3.80598 31.2719 5.52017 38.0974 1.32349L48.5837 5.67422L52.7781 10.0249C53.8269 11.1126 55.9241 14.3757 56.9727 16.551C58.0213 18.7263 59.0699 29.6033 59.0699 29.6033L56.9727 30.6909H47.5351L46.4864 26.3402V58.9706H12.9304V29.6033H1.39551V26.3402L4.54139 12.2003C4.54139 12.2003 6.63864 7.84958 8.73589 6.7619Z" fill="#276556"/>
<path d="M12.9304 29.6033V26.3402M12.9304 29.6033H1.39551V26.3402L4.54139 12.2003C4.54139 12.2003 6.63864 7.84958 8.73589 6.7619C10.8331 5.67422 23.4166 1.32349 23.4166 1.32349C28.5031 3.80598 31.2719 5.52017 38.0974 1.32349L48.5837 5.67422C48.5837 5.67422 51.7295 8.93726 52.7781 10.0249C53.8269 11.1126 55.9241 14.3757 56.9727 16.551C58.0213 18.7263 59.0699 29.6033 59.0699 29.6033L56.9727 30.6909H47.5351L46.4864 26.3402V58.9706H12.9304V29.6033Z" stroke="white" stroke-width="0.5"/>
</svg>
