<svg width="147" height="57" viewBox="0 0 147 57" fill="none" xmlns="http://www.w3.org/2000/svg">
<path d="M28.48 0C12.7762 0 0 12.7759 0 28.48C0 44.1841 12.7762 56.96 28.48 56.96C44.1838 56.96 56.96 44.1841 56.96 28.48C56.96 12.7759 44.1838 0 28.48 0ZM28.48 56.6702C12.9359 56.6702 0.289861 44.0241 0.289861 28.48C0.289861 12.9359 12.9359 0.289861 28.48 0.289861C44.0241 0.289861 56.6701 12.9359 56.6701 28.48C56.6701 44.0241 44.0241 56.6702 28.48 56.6702Z" fill="#8139E6"/>
<path d="M28.4804 1.58084C13.6479 1.58084 1.58099 13.6478 1.58099 28.4803C1.58099 43.3127 13.6479 55.3797 28.4804 55.3797C43.3129 55.3797 55.3801 43.3127 55.3801 28.4803C55.3801 13.6478 43.3129 1.58084 28.4804 1.58084Z" fill="#8139E6"/>
<path d="M30.7521 13.8526V21.7908H34.4877V27.0971H30.7521V37.7098H34.4877V43.0161H27.356C26.79 43.0161 26.2948 42.8109 25.8703 42.4006C25.4458 41.9902 25.2335 41.502 25.2335 40.936V27.0971H22.6016V21.7908H25.2335V13.8526H30.7521Z" fill="white"/>
<path d="M70.1362 10V15.0024H72.4902V18.3462H70.1362V25.0339H72.4902V28.3778H67.9961C67.6394 28.3778 67.3273 28.2485 67.0598 27.9899C66.7923 27.7313 66.6586 27.4236 66.6586 27.067V18.3462H65V15.0024H66.6586V10H70.1362ZM75.1653 16.3399C75.1653 15.9654 75.2946 15.6489 75.5532 15.3903C75.8118 15.1317 76.1283 15.0024 76.5029 15.0024H87.3369C87.6936 15.0024 88.0012 15.1317 88.2598 15.3903C88.5184 15.6489 88.6477 15.9654 88.6477 16.3399V22.0378C88.6477 22.3945 88.5184 22.7066 88.2598 22.9741C88.0012 23.2416 87.6847 23.3754 87.3102 23.3754H78.6162V25.0339H88.6477V28.3778H76.5029C76.1283 28.3778 75.8118 28.2485 75.5532 27.9899C75.2946 27.7313 75.1653 27.4147 75.1653 27.0402V16.3399ZM78.6162 18.3462V20.0315H85.1969V18.3462H78.6162ZM92.9814 18.3462H91.3228V15.0024H92.9814V11.3375C92.9814 10.963 93.1151 10.6465 93.3826 10.3879C93.6501 10.1293 93.9622 10 94.3189 10H99.7761V13.3438H96.4322V15.0024H98.0908V18.3462H96.4322V28.3778H92.9814V18.3462ZM110.878 25.0339V24.2047H114.329V27.0403C114.329 27.4148 114.199 27.7313 113.941 27.9899C113.682 28.2485 113.365 28.3778 112.991 28.3778H102.184C101.809 28.3778 101.493 28.2485 101.234 27.9899C100.975 27.7313 100.846 27.4148 100.846 27.0403V25.3282C100.846 24.9359 100.989 24.6148 101.274 24.3652L109.647 18.3463H104.297V19.1755H100.846V16.34C100.846 15.9833 100.975 15.6712 101.234 15.4037C101.493 15.1362 101.809 15.0024 102.184 15.0024H112.991C113.365 15.0024 113.682 15.1362 113.941 15.4037C114.199 15.6712 114.329 15.9922 114.329 16.3667V18.052C114.329 18.4622 114.186 18.7921 113.9 19.0418L105.527 25.0339H110.878ZM127.57 18.3462H120.989V25.0339H127.57V18.3462ZM131.021 27.0402C131.021 27.4147 130.892 27.7313 130.633 27.9899C130.375 28.2485 130.058 28.3778 129.683 28.3778H118.876C118.502 28.3778 118.185 28.2485 117.926 27.9899C117.668 27.7313 117.539 27.4147 117.539 27.0402V16.3667C117.539 15.9922 117.668 15.6712 117.926 15.4037C118.185 15.1361 118.502 15.0024 118.876 15.0024H129.683C130.058 15.0024 130.375 15.1361 130.633 15.4037C130.892 15.6712 131.021 15.9833 131.021 16.3399V27.0402ZM137.682 28.3778H134.231V15.0024H137.682V16.3399C137.682 15.9833 137.816 15.6712 138.083 15.4037C138.351 15.1361 138.663 15.0024 139.02 15.0024H145.252C145.627 15.0024 145.944 15.1361 146.202 15.4037C146.461 15.6712 146.59 15.9833 146.59 16.3399V28.3778H143.139V18.3462H139.02C138.663 18.3462 138.351 18.4755 138.083 18.7341C137.816 18.9927 137.682 19.3093 137.682 19.6838V28.3778Z" fill="#8139E6"/>
<path d="M65.2507 47.5157C65.0836 47.5157 65 47.4322 65 47.2651V35.2686C65 35.1015 65.0836 35.0179 65.2507 35.0179H71.7502C71.9173 35.0179 72.0009 35.1015 72.0009 35.2686V36.9159C72.0009 36.9636 71.983 37.0173 71.9472 37.077C71.9113 37.1367 71.8636 37.1665 71.8039 37.1665H67.1486V40.1925H70.8012C70.9683 40.1925 71.0519 40.2761 71.0519 40.4432V42.0905C71.0519 42.2576 70.9683 42.3411 70.8012 42.3411H67.1486V47.2651C67.1486 47.4322 67.065 47.5157 66.8979 47.5157H65.2507ZM80.5237 47.5157C80.452 47.5157 80.3834 47.4889 80.3178 47.4352C80.2521 47.3814 80.2074 47.3188 80.1835 47.2472L79.4852 44.8479H75.4924L74.7941 47.2472C74.7702 47.3188 74.7254 47.3814 74.6598 47.4352C74.5941 47.4889 74.5255 47.5157 74.4539 47.5157H72.8961C72.8245 47.5157 72.7559 47.4889 72.6902 47.4352C72.6246 47.3814 72.6037 47.3188 72.6275 47.2472L76.1727 35.2686C76.1966 35.2089 76.2265 35.1492 76.2623 35.0895C76.2981 35.0298 76.3518 35 76.4234 35H78.5362C78.6556 35 78.7451 35.0836 78.8048 35.2507L82.3321 47.2472C82.3559 47.3188 82.338 47.3815 82.2784 47.4352C82.2187 47.4889 82.153 47.5157 82.0814 47.5157H80.5237ZM77.4798 38.0976L76.1369 42.6634H78.8406L77.4798 38.0976ZM89.0823 47.5157C89.0106 47.5157 88.942 47.4889 88.8764 47.4352C88.8107 47.3815 88.7659 47.3248 88.7421 47.2651L85.6087 39.53V47.2651C85.6087 47.4322 85.5251 47.5157 85.358 47.5157H83.7108C83.5436 47.5157 83.4601 47.4322 83.4601 47.2651V35.2686C83.4601 35.1015 83.5436 35.0179 83.7108 35.0179H85.8952C86.0145 35.0179 86.1041 35.1015 86.1637 35.2686L88.939 42.4486L89.0465 42.9499V35.2686C89.0465 35.1015 89.13 35.0179 89.2971 35.0179H90.9444C91.1115 35.0179 91.1951 35.1015 91.1951 35.2686V47.2651C91.1951 47.4322 91.1115 47.5157 90.9444 47.5157H89.0823ZM95.4923 47.5157C95.4326 47.5157 95.3818 47.4948 95.3401 47.4531C95.2983 47.4113 95.2774 47.3606 95.2774 47.3009V37.1665H92.7707C92.6036 37.1665 92.52 37.083 92.52 36.9159V35.2686C92.52 35.1015 92.6036 35.0179 92.7707 35.0179H99.9506C100.01 35.0179 100.067 35.0418 100.121 35.0895C100.174 35.1373 100.201 35.197 100.201 35.2686V36.9159C100.201 36.9875 100.174 37.0472 100.121 37.0949C100.067 37.1427 100.01 37.1665 99.9506 37.1665H97.426V47.3009C97.426 47.4441 97.3604 47.5157 97.2291 47.5157H95.4923ZM108.617 47.5157C108.545 47.5157 108.476 47.4889 108.411 47.4352C108.345 47.3814 108.3 47.3188 108.276 47.2472L107.578 44.8479H103.585L102.887 47.2472C102.863 47.3188 102.818 47.3814 102.753 47.4352C102.687 47.4889 102.618 47.5157 102.547 47.5157H100.989C100.918 47.5157 100.849 47.4889 100.783 47.4352C100.718 47.3814 100.697 47.3188 100.721 47.2472L104.266 35.2686C104.29 35.2089 104.319 35.1492 104.355 35.0895C104.391 35.0298 104.445 35 104.516 35H106.629C106.749 35 106.838 35.0836 106.898 35.2507L110.425 47.2472C110.449 47.3188 110.431 47.3815 110.371 47.4352C110.312 47.4889 110.246 47.5157 110.174 47.5157H108.617ZM105.573 38.0976L104.23 42.6634H106.934L105.573 38.0976ZM118.178 47.3367C118.106 47.4083 118.029 47.4561 117.945 47.48C117.862 47.5038 117.784 47.5158 117.712 47.5158H113.093C112.962 47.5158 112.869 47.5009 112.815 47.471C112.762 47.4412 112.699 47.3904 112.627 47.3188L111.607 46.3161C111.523 46.2326 111.473 46.158 111.455 46.0923C111.437 46.0266 111.428 45.964 111.428 45.9043V44.078C111.428 44.0183 111.452 43.9616 111.499 43.9079C111.547 43.8541 111.607 43.8273 111.678 43.8273H113.326C113.397 43.8273 113.457 43.8541 113.505 43.9079C113.552 43.9616 113.576 44.0183 113.576 44.078V45.3671H116.781C116.805 45.3671 116.835 45.3492 116.871 45.3134L117.175 45.0269C117.211 45.0031 117.229 44.9613 117.229 44.9016V42.8067C117.229 42.759 117.211 42.7172 117.175 42.6814L116.889 42.3949C116.853 42.3591 116.811 42.3412 116.763 42.3412H113.039C113.003 42.3412 112.947 42.3292 112.869 42.3054C112.792 42.2815 112.711 42.2278 112.627 42.1442L111.607 41.1415C111.535 41.0699 111.487 40.9953 111.464 40.9177C111.44 40.8401 111.428 40.7655 111.428 40.6939V36.6652C111.428 36.6055 111.44 36.5339 111.464 36.4504C111.487 36.3668 111.541 36.2832 111.625 36.1997L112.627 35.197C112.687 35.1373 112.744 35.0925 112.797 35.0627C112.851 35.0328 112.95 35.0179 113.093 35.0179H117.712C117.784 35.0179 117.865 35.0328 117.954 35.0627C118.044 35.0925 118.118 35.1373 118.178 35.197L119.181 36.1997C119.276 36.3071 119.333 36.3936 119.351 36.4593C119.369 36.525 119.378 36.5936 119.378 36.6652V38.5453C119.378 38.7124 119.294 38.7959 119.127 38.7959H117.48C117.313 38.7959 117.229 38.7124 117.229 38.5453V37.1665H114.078C114.03 37.1665 113.982 37.1845 113.934 37.2203L113.63 37.5067C113.594 37.5306 113.576 37.5724 113.576 37.6321V39.7091C113.576 39.7568 113.594 39.7986 113.63 39.8344L113.934 40.1388C113.97 40.1746 114.018 40.1925 114.078 40.1925H117.712C117.903 40.1925 118.059 40.2522 118.178 40.3716L119.181 41.3743C119.312 41.5175 119.378 41.6727 119.378 41.8398V45.8506C119.378 46.0296 119.312 46.1848 119.181 46.3161L118.178 47.3367ZM124.087 47.5157C123.955 47.5157 123.89 47.4322 123.89 47.2651V41.7503L120.327 35.3044C120.279 35.2328 120.291 35.1671 120.362 35.1074C120.434 35.0478 120.506 35.0179 120.577 35.0179H122.386C122.457 35.0179 122.523 35.0448 122.583 35.0985C122.642 35.1522 122.69 35.2089 122.726 35.2686L124.964 39.7628L127.202 35.2686C127.238 35.2089 127.286 35.1522 127.345 35.0985C127.405 35.0448 127.471 35.0179 127.542 35.0179H129.351C129.422 35.0179 129.494 35.0478 129.566 35.1074C129.637 35.1671 129.649 35.2328 129.601 35.3044L126.038 41.7503V47.2651C126.038 47.4322 125.967 47.5157 125.823 47.5157H124.087Z" fill="#222222"/>
</svg>
