<svg width="997" height="600" viewBox="0 0 997 600" fill="none" xmlns="http://www.w3.org/2000/svg">
<path d="M259.729 0H740.265L997 573.99L0 575.849L259.729 0Z" fill="#4AAE75"/>
<path d="M222.25 83.1247H777.626L793.876 119.868H205.521L222.25 83.1247Z" fill="#199300" fill-opacity="0.3"/>
<path d="M250.447 20.4799H749.425L766.153 57.8258H233.719L250.447 20.4799Z" fill="#199300" fill-opacity="0.3"/>
<path d="M193.571 145.769H805.822L822.55 181.911H177.32L193.571 145.769Z" fill="#199300" fill-opacity="0.3"/>
<path d="M166.328 207.209H832.588L848.838 243.351H150.078L166.328 207.209Z" fill="#199300" fill-opacity="0.3"/>
<path d="M138.608 268.649H860.788L876.56 304.79H122.357L138.608 268.649Z" fill="#199300" fill-opacity="0.3"/>
<path d="M110.885 330.089H888.029L903.801 366.23H94.6348L110.885 330.089Z" fill="#199300" fill-opacity="0.3"/>
<path d="M83.1643 391.529H915.75L932 427.67H66.9141L83.1643 391.529Z" fill="#199300" fill-opacity="0.3"/>
<path d="M55.4436 452.969H942.993L959.244 489.11H39.1934L55.4436 452.969Z" fill="#199300" fill-opacity="0.3"/>
<path d="M27.7229 514.409H970.237L986.487 550.55H11.4727L27.7229 514.409Z" fill="#199300" fill-opacity="0.3"/>
<path d="M23.3533 598.229L271.019 49.1249H729.803L974.614 596.455L23.3533 598.229Z" stroke="white" stroke-opacity="0.5" stroke-width="3"/>
<path d="M98.457 434.336H901.41" stroke="white" stroke-opacity="0.5" stroke-width="2"/>
<circle r="72.2124" transform="matrix(0.808599 0.58836 -0.808599 0.58836 499.654 434.336)" stroke="white" stroke-opacity="0.5" stroke-width="3"/>
</svg>
