<svg width="754" height="666" viewBox="0 0 754 666" fill="none" xmlns="http://www.w3.org/2000/svg">
<path d="M100.625 0H656.824L953.983 664.368L-200 666.52L100.625 0Z" fill="#4AAE75"/>
<path d="M57.2401 96.2131H700.063L718.872 138.742H37.8779L57.2401 96.2131Z" fill="#199300" fill-opacity="0.3"/>
<path d="M89.8797 23.7047H667.424L686.787 66.9308H70.5176L89.8797 23.7047Z" fill="#199300" fill-opacity="0.3"/>
<path d="M24.0482 168.721H732.702L752.064 210.553H5.23926L24.0482 168.721Z" fill="#199300" fill-opacity="0.3"/>
<path d="M-7.48502 239.836H763.681L782.49 281.667H-26.2939L-7.48502 239.836Z" fill="#199300" fill-opacity="0.3"/>
<path d="M-39.571 310.95H796.32L814.576 352.781H-58.3799L-39.571 310.95Z" fill="#199300" fill-opacity="0.3"/>
<path d="M-71.6569 382.064H827.853L846.108 423.895H-90.4658L-71.6569 382.064Z" fill="#199300" fill-opacity="0.3"/>
<path d="M-103.743 453.178H859.938L878.747 495.01H-122.552L-103.743 453.178Z" fill="#199300" fill-opacity="0.3"/>
<path d="M-135.828 524.292H891.472L910.281 566.123H-154.637L-135.828 524.292Z" fill="#199300" fill-opacity="0.3"/>
<path d="M-167.914 595.406H923.004L941.813 637.238H-186.723L-167.914 595.406Z" fill="#199300" fill-opacity="0.3"/>
<path d="M-173.335 697.496L113.541 61.4589H644.868L928.436 695.441L-173.335 697.496Z" stroke="white" stroke-opacity="0.5" stroke-width="3"/>
<path d="M-86.04 507.559H843.342" stroke="white" stroke-opacity="0.5" stroke-width="2"/>
<circle r="83.8188" transform="matrix(0.808599 0.58836 -0.808599 0.58836 378.328 507.559)" stroke="white" stroke-opacity="0.5" stroke-width="3"/>
</svg>
