<svg width="30" height="30" viewBox="0 0 30 30" fill="none" xmlns="http://www.w3.org/2000/svg">
<circle cx="15" cy="15" r="15" fill="#FFD500"/>
<path d="M15.8406 23.384C14.0646 23.384 12.4646 23.016 11.0406 22.28C9.6166 21.528 8.4966 20.488 7.6806 19.16C6.8806 17.816 6.4806 16.296 6.4806 14.6C6.4806 12.904 6.8806 11.392 7.6806 10.064C8.4966 8.72 9.6166 7.68 11.0406 6.944C12.4646 6.192 14.0646 5.816 15.8406 5.816C17.4726 5.816 18.9286 6.104 20.2086 6.68C21.4886 7.256 22.5446 8.088 23.3766 9.176L19.8006 12.368C18.7606 11.056 17.5366 10.4 16.1286 10.4C14.9446 10.4 13.9926 10.784 13.2726 11.552C12.5526 12.304 12.1926 13.32 12.1926 14.6C12.1926 15.88 12.5526 16.904 13.2726 17.672C13.9926 18.424 14.9446 18.8 16.1286 18.8C17.5366 18.8 18.7606 18.144 19.8006 16.832L23.3766 20.024C22.5446 21.112 21.4886 21.944 20.2086 22.52C18.9286 23.096 17.4726 23.384 15.8406 23.384Z" fill="white"/>
</svg>
