<svg width="16" height="16" viewBox="0 0 16 16" fill="none" xmlns="http://www.w3.org/2000/svg">
<path d="M6.464 7.088C6.504 6.824 6.592 6.592 6.704 6.392C6.816 6.192 6.976 6.024 7.176 5.896C7.368 5.776 7.608 5.72 7.904 5.712C8.088 5.72 8.256 5.752 8.408 5.816C8.568 5.888 8.712 5.984 8.824 6.104C8.936 6.224 9.024 6.368 9.096 6.528C9.168 6.688 9.2 6.864 9.208 7.04H10.64C10.624 6.664 10.552 6.32 10.416 6.008C10.28 5.696 10.096 5.424 9.856 5.2C9.616 4.976 9.328 4.8 8.992 4.672C8.656 4.544 8.288 4.488 7.88 4.488C7.36 4.488 6.904 4.576 6.52 4.76C6.136 4.944 5.816 5.184 5.56 5.496C5.304 5.808 5.112 6.168 4.992 6.584C4.872 7 4.8 7.432 4.8 7.896V8.112C4.8 8.576 4.864 9.008 4.984 9.424C5.104 9.84 5.296 10.2 5.552 10.504C5.808 10.808 6.128 11.056 6.512 11.232C6.896 11.408 7.352 11.504 7.872 11.504C8.248 11.504 8.6 11.44 8.928 11.32C9.256 11.2 9.544 11.032 9.792 10.816C10.04 10.6 10.24 10.352 10.384 10.064C10.528 9.776 10.616 9.472 10.624 9.144H9.192C9.184 9.312 9.144 9.464 9.072 9.608C9 9.752 8.904 9.872 8.784 9.976C8.664 10.08 8.528 10.16 8.368 10.216C8.216 10.272 8.056 10.288 7.888 10.296C7.6 10.288 7.36 10.232 7.176 10.112C6.976 9.984 6.816 9.816 6.704 9.616C6.592 9.416 6.504 9.176 6.464 8.912C6.424 8.648 6.4 8.376 6.4 8.112V7.896C6.4 7.616 6.424 7.352 6.464 7.088ZM8 0C3.584 0 0 3.584 0 8C0 12.416 3.584 16 8 16C12.416 16 16 12.416 16 8C16 3.584 12.416 0 8 0ZM8 14.4C4.472 14.4 1.6 11.528 1.6 8C1.6 4.472 4.472 1.6 8 1.6C11.528 1.6 14.4 4.472 14.4 8C14.4 11.528 11.528 14.4 8 14.4Z" fill="white" fill-opacity="0.8"/>
</svg>
