<svg width="80" height="80" viewBox="0 0 80 80" fill="none" xmlns="http://www.w3.org/2000/svg">
<g clip-path="url(#clip0)">
<path d="M39.6462 80C39.2096 80 38.7829 79.8267 38.4662 79.5133C38.0729 79.12 37.8996 78.5533 38.0096 78.01L40.3662 66.2267C40.4329 65.9 40.5862 65.6033 40.8229 65.3733L66.7495 39.4466C68.6962 37.5 71.8729 37.5 73.8195 39.4466L78.5329 44.16C80.4829 46.11 80.4829 49.28 78.5329 51.23L52.6062 77.1567C52.3762 77.39 52.0796 77.5467 51.7529 77.6133L39.9696 79.97C39.8629 79.99 39.7529 80 39.6462 80ZM43.5396 67.37L41.7729 76.2067L50.6096 74.44L76.1795 48.87C76.8295 48.22 76.8295 47.1633 76.1795 46.5133L71.4662 41.8C70.8162 41.15 69.7595 41.15 69.1095 41.8L43.5396 67.37ZM51.4296 75.9767H51.4629H51.4296Z" fill="#8139E6"/>
<path d="M31.6667 70H8.33333C3.73667 70 0 66.2633 0 61.6667V18.3333C0 13.7367 3.73667 9.99999 8.33333 9.99999H15C15.92 9.99999 16.6667 10.7467 16.6667 11.6667C16.6667 12.5867 15.92 13.3333 15 13.3333H8.33333C5.57667 13.3333 3.33333 15.5767 3.33333 18.3333V61.6667C3.33333 64.4233 5.57667 66.6667 8.33333 66.6667H31.6667C32.5867 66.6667 33.3333 67.4133 33.3333 68.3333C33.3333 69.2533 32.5867 70 31.6667 70Z" fill="#8139E6"/>
<path d="M55 40C54.08 40 53.3333 39.2533 53.3333 38.3333V18.3333C53.3333 15.5767 51.09 13.3333 48.3333 13.3333H41.6667C40.7467 13.3333 40 12.5867 40 11.6667C40 10.7467 40.7467 9.99999 41.6667 9.99999H48.3333C52.93 9.99999 56.6666 13.7367 56.6666 18.3333V38.3333C56.6666 39.2533 55.92 40 55 40Z" fill="#8139E6"/>
<path d="M38.333 20H18.333C15.5763 20 13.333 17.7567 13.333 15V8.33332C13.333 7.41332 14.0797 6.66666 14.9997 6.66666H20.1663C20.9397 2.86666 24.3097 -1.14441e-05 28.333 -1.14441e-05C32.3563 -1.14441e-05 35.7263 2.86666 36.4997 6.66666H41.6663C42.5863 6.66666 43.333 7.41332 43.333 8.33332V15C43.333 17.7567 41.0897 20 38.333 20ZM16.6663 9.99999V15C16.6663 15.9167 17.4163 16.6667 18.333 16.6667H38.333C39.2497 16.6667 39.9997 15.9167 39.9997 15V9.99999H34.9997C34.0797 9.99999 33.333 9.25332 33.333 8.33332C33.333 5.57665 31.0897 3.33332 28.333 3.33332C25.5763 3.33332 23.333 5.57665 23.333 8.33332C23.333 9.25332 22.5863 9.99999 21.6663 9.99999H16.6663Z" fill="#8139E6"/>
<path d="M45 30H11.6667C10.7467 30 10 29.2534 10 28.3334C10 27.4134 10.7467 26.6667 11.6667 26.6667H45C45.92 26.6667 46.6666 27.4134 46.6666 28.3334C46.6666 29.2534 45.92 30 45 30Z" fill="#8139E6"/>
<path d="M45 40H11.6667C10.7467 40 10 39.2533 10 38.3333C10 37.4133 10.7467 36.6666 11.6667 36.6666H45C45.92 36.6666 46.6666 37.4133 46.6666 38.3333C46.6666 39.2533 45.92 40 45 40Z" fill="#8139E6"/>
<path d="M45 50H11.6667C10.7467 50 10 49.2534 10 48.3334C10 47.4134 10.7467 46.6667 11.6667 46.6667H45C45.92 46.6667 46.6666 47.4134 46.6666 48.3334C46.6666 49.2534 45.92 50 45 50Z" fill="#8139E6"/>
</g>
<defs>
<clipPath id="clip0">
<rect width="80" height="80" fill="white"/>
</clipPath>
</defs>
</svg>
