<svg width="32" height="30" viewBox="0 0 32 30" fill="none" xmlns="http://www.w3.org/2000/svg">
<path d="M22.6712 0.4874C21.1792 0.4874 19.7532 0.829437 18.4329 1.50408C17.5341 1.96323 16.7085 2.57327 16 3.29707C15.2915 2.57327 14.4659 1.96323 13.5671 1.50408C12.2468 0.829437 10.8208 0.4874 9.32869 0.4874C4.18487 0.4874 0 4.67228 0 9.81616C0 13.4595 1.92416 17.329 5.71896 21.3173C8.88742 24.6473 12.7666 27.4232 15.4629 29.1655L16 29.5127L16.5371 29.1655C19.2334 27.4233 23.1126 24.6473 26.281 21.3173C30.0758 17.329 32 13.4595 32 9.81616C32 4.67228 27.8151 0.4874 22.6712 0.4874Z" fill="white"/>
</svg>
