<svg width="32" height="32" viewBox="0 0 32 32" fill="none" xmlns="http://www.w3.org/2000/svg">
<path d="M0.3325 12.2819C0.120625 12.6644 0 13.1037 0 13.5706V28.2381C0 28.4975 0.036875 28.7481 0.10625 28.985L10.0463 21.9962L0.3325 12.2819Z" fill="white"/>
<path d="M4.02383 10.9013H2.66945C2.35132 10.9013 2.0457 10.9576 1.76257 11.0607L4.02383 13.3219V10.9013Z" fill="white"/>
<path d="M29.3305 10.9013H28.1293V13.4801L30.458 11.1513C30.1149 10.9907 29.733 10.9013 29.3305 10.9013Z" fill="white"/>
<path d="M1.23132 30.4857C1.64695 30.7526 2.1407 30.9076 2.66945 30.9076H29.3307C29.8594 30.9076 30.3532 30.7526 30.7688 30.4857L16.0001 20.102L1.23132 30.4857Z" fill="white"/>
<path d="M31.7714 12.4893L22.1364 22.1243L31.8939 28.9849C31.9632 28.7481 32.0001 28.4974 32.0001 28.2381V13.5706C32.0001 13.1862 31.9182 12.8199 31.7714 12.4893Z" fill="white"/>
<path d="M15.4607 18.1894C15.7844 17.9619 16.2157 17.9619 16.5394 18.1894L20.5794 21.03L26.2544 15.355V3.34939C26.2544 2.10439 25.2419 1.09252 23.9976 1.09252H8.1563C6.9113 1.09252 5.8988 2.10439 5.8988 3.34939V15.1969L11.6032 20.9013L15.4607 18.1894ZM11.5708 9.23646C11.937 8.87027 12.5306 8.87052 12.8966 9.23658L14.7376 11.078L19.2567 6.55889C19.6228 6.19283 20.2164 6.19283 20.5826 6.55889C20.9487 6.92496 20.9487 7.51858 20.5826 7.88471L15.4005 13.0668C15.2247 13.2426 14.9862 13.3414 14.7376 13.3414C14.7376 13.3414 14.7376 13.3414 14.7376 13.3414C14.4889 13.3414 14.2504 13.2426 14.0747 13.0667L11.5707 10.5623C11.2046 10.1961 11.2046 9.60246 11.5708 9.23646Z" fill="white"/>
</svg>
