<svg width="32" height="30" viewBox="0 0 32 30" fill="none" xmlns="http://www.w3.org/2000/svg">
<path d="M0.3325 11.2819C0.120625 11.6644 0 12.1037 0 12.5706V27.2381C0 27.4975 0.036875 27.7481 0.10625 27.985L10.0463 20.9962L0.3325 11.2819Z" fill="white"/>
<path d="M4.02383 9.90133H2.66945C2.35132 9.90133 2.0457 9.95758 1.76257 10.0607L4.02383 12.3219V9.90133Z" fill="white"/>
<path d="M29.3305 9.90133H28.1293V12.4801L30.458 10.1513C30.1149 9.9907 29.733 9.90133 29.3305 9.90133Z" fill="white"/>
<path d="M1.23132 29.4857C1.64695 29.7526 2.1407 29.9076 2.66945 29.9076H29.3307C29.8594 29.9076 30.3532 29.7526 30.7688 29.4857L16.0001 19.102L1.23132 29.4857Z" fill="white"/>
<path d="M31.7714 11.4893L22.1364 21.1243L31.8939 27.9849C31.9632 27.7481 32.0001 27.4974 32.0001 27.2381V12.5706C32.0001 12.1862 31.9182 11.8199 31.7714 11.4893Z" fill="white"/>
<path d="M15.4607 17.1894C15.7844 16.9619 16.2157 16.9619 16.5394 17.1894L20.5794 20.03L26.2544 14.355V2.34939C26.2544 1.10439 25.2419 0.0925179 23.9976 0.0925179H8.1563C6.9113 0.0925179 5.8988 1.10439 5.8988 2.34939V14.1969L11.6032 19.9013L15.4607 17.1894ZM11.5708 8.23646C11.937 7.87027 12.5306 7.87052 12.8966 8.23658L14.7376 10.078L19.2567 5.55889C19.6228 5.19283 20.2164 5.19283 20.5826 5.55889C20.9487 5.92496 20.9487 6.51858 20.5826 6.88471L15.4005 12.0668C15.2247 12.2426 14.9862 12.3414 14.7376 12.3414C14.7376 12.3414 14.7376 12.3414 14.7376 12.3414C14.4889 12.3414 14.2504 12.2426 14.0747 12.0667L11.5707 9.56227C11.2046 9.19608 11.2046 8.60246 11.5708 8.23646Z" fill="white"/>
</svg>
