<svg width="30" height="32" viewBox="0 0 30 32" fill="none" xmlns="http://www.w3.org/2000/svg">
<path d="M13.0797 16.2195C17.5857 16.2192 19.2069 11.7076 19.6314 8.00152C20.1542 3.43608 17.9952 0 13.0797 0C8.16475 0 6.00469 3.43582 6.52793 8.00152C6.95277 11.7076 8.57358 16.2198 13.0797 16.2195Z" fill="white"/>
<path d="M22.9324 18.0976C23.0774 18.0976 23.2215 18.1019 23.3645 18.1098C23.1501 17.804 22.9019 17.5342 22.6114 17.3173C21.7456 16.671 20.6242 16.459 19.6329 16.0695C19.1504 15.8799 18.7183 15.6916 18.3126 15.4773C16.9435 16.9787 15.1582 17.7641 13.0791 17.7643C11.0007 17.7643 9.21551 16.9789 7.84657 15.4773C7.44092 15.6917 7.00871 15.8799 6.52625 16.0695C5.53493 16.4591 4.41363 16.671 3.54774 17.3173C2.05033 18.4349 1.66335 20.9492 1.3593 22.6642C1.10837 24.0799 0.939796 25.5247 0.890593 26.9627C0.852475 28.0766 1.40244 28.2328 2.33431 28.569C3.5011 28.9898 4.70586 29.3023 5.91872 29.5584C8.26105 30.053 10.6755 30.4331 13.0795 30.4501C14.2444 30.4418 15.4116 30.3478 16.5719 30.1974C15.7128 28.9526 15.2089 27.4447 15.2089 25.8212C15.2089 21.5623 18.6737 18.0976 22.9324 18.0976Z" fill="white"/>
<path d="M22.9324 19.6423C19.52 19.6423 16.7535 22.4087 16.7535 25.8211C16.7535 29.2335 19.52 32 22.9324 32C26.3449 32 29.1114 29.2335 29.1114 25.8211C29.1113 22.4087 26.3448 19.6423 22.9324 19.6423ZM25.6357 26.8812H23.9926V28.5243C23.9926 29.1098 23.5179 29.5845 22.9325 29.5845C22.347 29.5845 21.8723 29.1098 21.8723 28.5243V26.8812H20.2292C19.6437 26.8812 19.169 26.4066 19.169 25.821C19.169 25.2355 19.6436 24.7609 20.2292 24.7609H21.8723V23.1178C21.8723 22.5323 22.347 22.0576 22.9325 22.0576C23.518 22.0576 23.9926 22.5323 23.9926 23.1178V24.7609H25.6357C26.2212 24.7609 26.6959 25.2355 26.6959 25.821C26.6958 26.4067 26.2213 26.8812 25.6357 26.8812Z" fill="white"/>
</svg>
